<mxfile host="app.diagrams.net" modified="2023-04-12T15:38:53.968Z" agent="Mozilla/5.0 (Windows NT 10.0; Win64; x64) AppleWebKit/537.36 (KHTML, like Gecko) Chrome/111.0.0.0 Safari/537.36 OPR/97.0.0.0" etag="Fccb7lulZzGpG0NmZ2zb" version="21.1.6" type="github">
  <diagram name="PÃ¡gina-1" id="NV6BH5sB5BCvQYJYY9mn">
    <mxGraphModel dx="1009" dy="542" grid="1" gridSize="10" guides="1" tooltips="1" connect="1" arrows="1" fold="1" page="1" pageScale="1" pageWidth="827" pageHeight="1169" math="0" shadow="0">
      <root>
        <mxCell id="0" />
        <mxCell id="1" parent="0" />
        <mxCell id="xkJ9vEOYdQlnlvjynkOk-1" value="Hospitales" style="rounded=0;whiteSpace=wrap;html=1;" vertex="1" parent="1">
          <mxGeometry x="70" y="110" width="120" height="60" as="geometry" />
        </mxCell>
        <mxCell id="xkJ9vEOYdQlnlvjynkOk-2" value="Medico" style="rounded=0;whiteSpace=wrap;html=1;" vertex="1" parent="1">
          <mxGeometry x="210" y="110" width="120" height="60" as="geometry" />
        </mxCell>
        <mxCell id="xkJ9vEOYdQlnlvjynkOk-3" value="Concesionado" style="rounded=0;whiteSpace=wrap;html=1;" vertex="1" parent="1">
          <mxGeometry x="1080" y="575" width="120" height="50" as="geometry" />
        </mxCell>
        <mxCell id="xkJ9vEOYdQlnlvjynkOk-4" value="Poliza" style="rounded=0;whiteSpace=wrap;html=1;" vertex="1" parent="1">
          <mxGeometry x="70" y="290" width="120" height="60" as="geometry" />
        </mxCell>
        <mxCell id="xkJ9vEOYdQlnlvjynkOk-5" value="Propio" style="rounded=0;whiteSpace=wrap;html=1;" vertex="1" parent="1">
          <mxGeometry x="890" y="570" width="120" height="60" as="geometry" />
        </mxCell>
        <mxCell id="xkJ9vEOYdQlnlvjynkOk-6" value="Asegurado" style="rounded=0;whiteSpace=wrap;html=1;" vertex="1" parent="1">
          <mxGeometry x="210" y="290" width="120" height="60" as="geometry" />
        </mxCell>
        <mxCell id="xkJ9vEOYdQlnlvjynkOk-7" value="Zona" style="rounded=0;whiteSpace=wrap;html=1;" vertex="1" parent="1">
          <mxGeometry x="70" y="380" width="120" height="60" as="geometry" />
        </mxCell>
        <mxCell id="xkJ9vEOYdQlnlvjynkOk-9" value="&lt;font size=&quot;1&quot;&gt;relacion&lt;/font&gt;" style="rhombus;whiteSpace=wrap;html=1;" vertex="1" parent="1">
          <mxGeometry x="354" y="200" width="60" height="60" as="geometry" />
        </mxCell>
        <mxCell id="xkJ9vEOYdQlnlvjynkOk-10" value="&lt;font size=&quot;1&quot;&gt;relacion&lt;/font&gt;" style="rhombus;whiteSpace=wrap;html=1;" vertex="1" parent="1">
          <mxGeometry x="354" y="290" width="60" height="60" as="geometry" />
        </mxCell>
        <mxCell id="xkJ9vEOYdQlnlvjynkOk-11" value="&lt;font size=&quot;1&quot;&gt;relacion&lt;/font&gt;" style="rhombus;whiteSpace=wrap;html=1;" vertex="1" parent="1">
          <mxGeometry x="354" y="370" width="60" height="60" as="geometry" />
        </mxCell>
        <mxCell id="xkJ9vEOYdQlnlvjynkOk-22" style="edgeStyle=orthogonalEdgeStyle;rounded=0;orthogonalLoop=1;jettySize=auto;html=1;entryX=0.5;entryY=0;entryDx=0;entryDy=0;" edge="1" parent="1" target="xkJ9vEOYdQlnlvjynkOk-21">
          <mxGeometry relative="1" as="geometry">
            <mxPoint x="200" y="680" as="sourcePoint" />
          </mxGeometry>
        </mxCell>
        <mxCell id="xkJ9vEOYdQlnlvjynkOk-32" style="edgeStyle=orthogonalEdgeStyle;rounded=0;orthogonalLoop=1;jettySize=auto;html=1;entryX=1;entryY=0.5;entryDx=0;entryDy=0;" edge="1" parent="1" source="xkJ9vEOYdQlnlvjynkOk-30" target="xkJ9vEOYdQlnlvjynkOk-31">
          <mxGeometry relative="1" as="geometry" />
        </mxCell>
        <mxCell id="xkJ9vEOYdQlnlvjynkOk-30" value="Poliza" style="rounded=0;whiteSpace=wrap;html=1;" vertex="1" parent="1">
          <mxGeometry x="640" y="1020" width="120" height="60" as="geometry" />
        </mxCell>
        <mxCell id="xkJ9vEOYdQlnlvjynkOk-34" style="edgeStyle=orthogonalEdgeStyle;rounded=0;orthogonalLoop=1;jettySize=auto;html=1;entryX=1;entryY=0.5;entryDx=0;entryDy=0;" edge="1" parent="1" source="xkJ9vEOYdQlnlvjynkOk-31" target="xkJ9vEOYdQlnlvjynkOk-33">
          <mxGeometry relative="1" as="geometry" />
        </mxCell>
        <mxCell id="xkJ9vEOYdQlnlvjynkOk-31" value="&lt;font size=&quot;1&quot;&gt;Asegura&lt;/font&gt;" style="rhombus;whiteSpace=wrap;html=1;" vertex="1" parent="1">
          <mxGeometry x="490" y="1015" width="90" height="70" as="geometry" />
        </mxCell>
        <mxCell id="xkJ9vEOYdQlnlvjynkOk-39" style="edgeStyle=orthogonalEdgeStyle;rounded=0;orthogonalLoop=1;jettySize=auto;html=1;exitX=0.5;exitY=0;exitDx=0;exitDy=0;entryX=0.5;entryY=1;entryDx=0;entryDy=0;" edge="1" parent="1" source="xkJ9vEOYdQlnlvjynkOk-33" target="xkJ9vEOYdQlnlvjynkOk-38">
          <mxGeometry relative="1" as="geometry" />
        </mxCell>
        <mxCell id="xkJ9vEOYdQlnlvjynkOk-33" value="Asegurado" style="rounded=0;whiteSpace=wrap;html=1;" vertex="1" parent="1">
          <mxGeometry x="310" y="1020" width="120" height="60" as="geometry" />
        </mxCell>
        <mxCell id="xkJ9vEOYdQlnlvjynkOk-63" style="edgeStyle=orthogonalEdgeStyle;rounded=0;orthogonalLoop=1;jettySize=auto;html=1;entryX=0;entryY=0.5;entryDx=0;entryDy=0;" edge="1" parent="1" source="xkJ9vEOYdQlnlvjynkOk-35" target="xkJ9vEOYdQlnlvjynkOk-45">
          <mxGeometry relative="1" as="geometry">
            <Array as="points">
              <mxPoint x="160" y="890" />
              <mxPoint x="160" y="580" />
            </Array>
          </mxGeometry>
        </mxCell>
        <mxCell id="xkJ9vEOYdQlnlvjynkOk-35" value="Categoria 1" style="rounded=0;whiteSpace=wrap;html=1;" vertex="1" parent="1">
          <mxGeometry x="240" y="870" width="70" height="40" as="geometry" />
        </mxCell>
        <mxCell id="xkJ9vEOYdQlnlvjynkOk-50" style="edgeStyle=orthogonalEdgeStyle;rounded=0;orthogonalLoop=1;jettySize=auto;html=1;entryX=0.5;entryY=1;entryDx=0;entryDy=0;" edge="1" parent="1" source="xkJ9vEOYdQlnlvjynkOk-37" target="xkJ9vEOYdQlnlvjynkOk-48">
          <mxGeometry relative="1" as="geometry" />
        </mxCell>
        <mxCell id="xkJ9vEOYdQlnlvjynkOk-37" value="Categoria 2" style="rounded=0;whiteSpace=wrap;html=1;" vertex="1" parent="1">
          <mxGeometry x="502.5" y="870" width="70" height="40" as="geometry" />
        </mxCell>
        <mxCell id="xkJ9vEOYdQlnlvjynkOk-40" style="edgeStyle=orthogonalEdgeStyle;rounded=0;orthogonalLoop=1;jettySize=auto;html=1;entryX=0.5;entryY=1;entryDx=0;entryDy=0;" edge="1" parent="1" source="xkJ9vEOYdQlnlvjynkOk-38" target="xkJ9vEOYdQlnlvjynkOk-37">
          <mxGeometry relative="1" as="geometry">
            <mxPoint x="220" y="1010" as="sourcePoint" />
          </mxGeometry>
        </mxCell>
        <mxCell id="xkJ9vEOYdQlnlvjynkOk-44" style="edgeStyle=orthogonalEdgeStyle;rounded=0;orthogonalLoop=1;jettySize=auto;html=1;entryX=0.5;entryY=1;entryDx=0;entryDy=0;" edge="1" parent="1" source="xkJ9vEOYdQlnlvjynkOk-38" target="xkJ9vEOYdQlnlvjynkOk-35">
          <mxGeometry relative="1" as="geometry" />
        </mxCell>
        <mxCell id="xkJ9vEOYdQlnlvjynkOk-38" value="&lt;font size=&quot;1&quot;&gt;pertenece&lt;/font&gt;" style="rhombus;whiteSpace=wrap;html=1;" vertex="1" parent="1">
          <mxGeometry x="370" y="940" width="60" height="50" as="geometry" />
        </mxCell>
        <mxCell id="xkJ9vEOYdQlnlvjynkOk-45" value="&lt;font size=&quot;1&quot;&gt;hospitalizacion A&lt;/font&gt;" style="rhombus;whiteSpace=wrap;html=1;" vertex="1" parent="1">
          <mxGeometry x="180" y="565" width="85" height="70" as="geometry" />
        </mxCell>
        <mxCell id="xkJ9vEOYdQlnlvjynkOk-69" style="edgeStyle=orthogonalEdgeStyle;rounded=0;orthogonalLoop=1;jettySize=auto;html=1;entryX=1;entryY=1;entryDx=0;entryDy=0;" edge="1" parent="1" source="xkJ9vEOYdQlnlvjynkOk-48" target="xkJ9vEOYdQlnlvjynkOk-64">
          <mxGeometry relative="1" as="geometry" />
        </mxCell>
        <mxCell id="xkJ9vEOYdQlnlvjynkOk-72" style="edgeStyle=orthogonalEdgeStyle;rounded=0;orthogonalLoop=1;jettySize=auto;html=1;entryX=0.5;entryY=1;entryDx=0;entryDy=0;" edge="1" parent="1" source="xkJ9vEOYdQlnlvjynkOk-48" target="xkJ9vEOYdQlnlvjynkOk-71">
          <mxGeometry relative="1" as="geometry" />
        </mxCell>
        <mxCell id="xkJ9vEOYdQlnlvjynkOk-48" value="&lt;font size=&quot;1&quot;&gt;hospitalizacion B&lt;/font&gt;" style="rhombus;whiteSpace=wrap;html=1;" vertex="1" parent="1">
          <mxGeometry x="630" y="790" width="85" height="70" as="geometry" />
        </mxCell>
        <mxCell id="xkJ9vEOYdQlnlvjynkOk-59" value="Hospitales" style="rounded=0;whiteSpace=wrap;html=1;" vertex="1" parent="1">
          <mxGeometry x="980" y="360" width="120" height="60" as="geometry" />
        </mxCell>
        <mxCell id="xkJ9vEOYdQlnlvjynkOk-67" style="edgeStyle=orthogonalEdgeStyle;rounded=0;orthogonalLoop=1;jettySize=auto;html=1;exitX=0.5;exitY=1;exitDx=0;exitDy=0;" edge="1" parent="1" source="xkJ9vEOYdQlnlvjynkOk-64" target="xkJ9vEOYdQlnlvjynkOk-65">
          <mxGeometry relative="1" as="geometry" />
        </mxCell>
        <mxCell id="xkJ9vEOYdQlnlvjynkOk-68" style="edgeStyle=orthogonalEdgeStyle;rounded=0;orthogonalLoop=1;jettySize=auto;html=1;exitX=0.5;exitY=0;exitDx=0;exitDy=0;entryX=1;entryY=0.5;entryDx=0;entryDy=0;" edge="1" parent="1" source="xkJ9vEOYdQlnlvjynkOk-64" target="xkJ9vEOYdQlnlvjynkOk-45">
          <mxGeometry relative="1" as="geometry" />
        </mxCell>
        <mxCell id="xkJ9vEOYdQlnlvjynkOk-70" style="edgeStyle=orthogonalEdgeStyle;rounded=0;orthogonalLoop=1;jettySize=auto;html=1;exitX=1;exitY=0.5;exitDx=0;exitDy=0;entryX=0;entryY=0.5;entryDx=0;entryDy=0;" edge="1" parent="1" source="xkJ9vEOYdQlnlvjynkOk-64" target="xkJ9vEOYdQlnlvjynkOk-71">
          <mxGeometry relative="1" as="geometry">
            <mxPoint x="690" y="690" as="targetPoint" />
          </mxGeometry>
        </mxCell>
        <mxCell id="xkJ9vEOYdQlnlvjynkOk-64" value="Medico" style="rounded=0;whiteSpace=wrap;html=1;" vertex="1" parent="1">
          <mxGeometry x="390" y="630" width="120" height="60" as="geometry" />
        </mxCell>
        <mxCell id="xkJ9vEOYdQlnlvjynkOk-66" style="edgeStyle=orthogonalEdgeStyle;rounded=0;orthogonalLoop=1;jettySize=auto;html=1;entryX=0.016;entryY=0.387;entryDx=0;entryDy=0;entryPerimeter=0;" edge="1" parent="1" source="xkJ9vEOYdQlnlvjynkOk-65" target="xkJ9vEOYdQlnlvjynkOk-64">
          <mxGeometry relative="1" as="geometry">
            <Array as="points">
              <mxPoint x="303" y="653" />
              <mxPoint x="370" y="653" />
            </Array>
          </mxGeometry>
        </mxCell>
        <mxCell id="xkJ9vEOYdQlnlvjynkOk-65" value="&lt;font size=&quot;1&quot;&gt;Jefe_medico&lt;/font&gt;" style="rhombus;whiteSpace=wrap;html=1;" vertex="1" parent="1">
          <mxGeometry x="260" y="690" width="85" height="70" as="geometry" />
        </mxCell>
        <mxCell id="xkJ9vEOYdQlnlvjynkOk-75" style="edgeStyle=orthogonalEdgeStyle;rounded=0;orthogonalLoop=1;jettySize=auto;html=1;entryX=0.5;entryY=1;entryDx=0;entryDy=0;" edge="1" parent="1" source="xkJ9vEOYdQlnlvjynkOk-71">
          <mxGeometry relative="1" as="geometry">
            <mxPoint x="950" y="630" as="targetPoint" />
          </mxGeometry>
        </mxCell>
        <mxCell id="xkJ9vEOYdQlnlvjynkOk-71" value="Zona" style="rounded=0;whiteSpace=wrap;html=1;" vertex="1" parent="1">
          <mxGeometry x="710" y="640" width="80" height="40" as="geometry" />
        </mxCell>
        <mxCell id="xkJ9vEOYdQlnlvjynkOk-78" style="edgeStyle=orthogonalEdgeStyle;rounded=0;orthogonalLoop=1;jettySize=auto;html=1;exitX=0.5;exitY=0;exitDx=0;exitDy=0;entryX=0.5;entryY=1;entryDx=0;entryDy=0;" edge="1" parent="1" source="xkJ9vEOYdQlnlvjynkOk-76" target="xkJ9vEOYdQlnlvjynkOk-59">
          <mxGeometry relative="1" as="geometry" />
        </mxCell>
        <mxCell id="xkJ9vEOYdQlnlvjynkOk-80" style="edgeStyle=orthogonalEdgeStyle;rounded=0;orthogonalLoop=1;jettySize=auto;html=1;exitX=0;exitY=0.5;exitDx=0;exitDy=0;entryX=0.5;entryY=0;entryDx=0;entryDy=0;" edge="1" parent="1" source="xkJ9vEOYdQlnlvjynkOk-76" target="xkJ9vEOYdQlnlvjynkOk-5">
          <mxGeometry relative="1" as="geometry" />
        </mxCell>
        <mxCell id="xkJ9vEOYdQlnlvjynkOk-81" style="edgeStyle=orthogonalEdgeStyle;rounded=0;orthogonalLoop=1;jettySize=auto;html=1;exitX=1;exitY=0.5;exitDx=0;exitDy=0;entryX=0.5;entryY=0;entryDx=0;entryDy=0;" edge="1" parent="1" source="xkJ9vEOYdQlnlvjynkOk-76" target="xkJ9vEOYdQlnlvjynkOk-3">
          <mxGeometry relative="1" as="geometry" />
        </mxCell>
        <mxCell id="xkJ9vEOYdQlnlvjynkOk-76" value="&lt;font size=&quot;1&quot;&gt;ES&lt;/font&gt;" style="rhombus;whiteSpace=wrap;html=1;" vertex="1" parent="1">
          <mxGeometry x="1010" y="480" width="60" height="60" as="geometry" />
        </mxCell>
      </root>
    </mxGraphModel>
  </diagram>
</mxfile>
